<svg width="24" height="24" viewBox="0 0 24 24" fill="none" xmlns="http://www.w3.org/2000/svg">
<path d="M7.99969 16.2112L7.99969 7.79117C7.9992 7.45875 8.09287 7.133 8.26984 6.85161C8.44682 6.57023 8.69986 6.34471 8.99968 6.20117C9.35543 6.03314 9.75122 5.96842 10.142 6.01438C10.5327 6.06035 10.9027 6.21516 11.2097 6.46117L16.3097 10.6712C16.5003 10.8364 16.6532 11.0406 16.758 11.2701C16.8628 11.4996 16.917 11.7489 16.917 12.0012C16.917 12.2534 16.8628 12.5027 16.758 12.7322C16.6532 12.9617 16.5003 13.166 16.3097 13.3312L11.2097 17.5412C10.9027 17.7872 10.5327 17.942 10.142 17.988C9.75122 18.0339 9.35543 17.9692 8.99968 17.8012C8.69986 17.6576 8.44682 17.4321 8.26984 17.1507C8.09287 16.8693 7.9992 16.5436 7.99969 16.2112Z" fill="black"/>
</svg>
