<svg width="24" height="25" viewBox="0 0 24 25" fill="none" xmlns="http://www.w3.org/2000/svg">
<path d="M12 23C6.21 23 1.5 18.29 1.5 12.5C1.5 6.71 6.21 2 12 2C17.79 2 22.5 6.71 22.5 12.5C22.5 18.29 17.79 23 12 23ZM12 3.5C7.035 3.5 3 7.535 3 12.5C3 17.465 7.035 21.5 12 21.5C16.965 21.5 21 17.465 21 12.5C21 7.535 16.965 3.5 12 3.5Z" fill="#767676"/>
<path d="M12 18.5C15.3137 18.5 18 15.8137 18 12.5C18 9.18629 15.3137 6.5 12 6.5C8.68629 6.5 6 9.18629 6 12.5C6 15.8137 8.68629 18.5 12 18.5Z" fill="#767676"/>
</svg>
