<svg width="24" height="25" viewBox="0 0 24 25" fill="none" xmlns="http://www.w3.org/2000/svg">
<path d="M3 17.9585V20.9985C3 21.2785 3.22 21.4985 3.5 21.4985H6.54C6.67 21.4985 6.8 21.4485 6.89 21.3485L17.81 10.4385L14.06 6.68854L3.15 17.5985C3.05 17.6985 3 17.8185 3 17.9585ZM20.71 7.53854C20.8027 7.44602 20.8762 7.33614 20.9264 7.21516C20.9766 7.09419 21.0024 6.96451 21.0024 6.83354C21.0024 6.70257 20.9766 6.57289 20.9264 6.45191C20.8762 6.33094 20.8027 6.22105 20.71 6.12854L18.37 3.78854C18.2775 3.69583 18.1676 3.62229 18.0466 3.57211C17.9257 3.52192 17.796 3.49609 17.665 3.49609C17.534 3.49609 17.4043 3.52192 17.2834 3.57211C17.1624 3.62229 17.0525 3.69583 16.96 3.78854L15.13 5.61854L18.88 9.36854L20.71 7.53854Z" fill="#272727"/>
</svg>
