<svg width="23" height="19" viewBox="0 0 23 19" fill="none" xmlns="http://www.w3.org/2000/svg">
<path d="M6.70588 8.94118C7.89156 8.94118 9.02867 8.47017 9.86707 7.63177C10.7055 6.79337 11.1765 5.65626 11.1765 4.47059C11.1765 3.28491 10.7055 2.1478 9.86707 1.3094C9.02867 0.471007 7.89156 0 6.70588 0C5.52021 0 4.3831 0.471007 3.5447 1.3094C2.7063 2.1478 2.23529 3.28491 2.23529 4.47059C2.23529 5.65626 2.7063 6.79337 3.5447 7.63177C4.3831 8.47017 5.52021 8.94118 6.70588 8.94118ZM16.7647 8.94118C17.654 8.94118 18.5068 8.58792 19.1356 7.95912C19.7644 7.33032 20.1176 6.47749 20.1176 5.58824C20.1176 4.69898 19.7644 3.84615 19.1356 3.21735C18.5068 2.58855 17.654 2.23529 16.7647 2.23529C15.8755 2.23529 15.0226 2.58855 14.3938 3.21735C13.765 3.84615 13.4118 4.69898 13.4118 5.58824C13.4118 6.47749 13.765 7.33032 14.3938 7.95912C15.0226 8.58792 15.8755 8.94118 16.7647 8.94118ZM2.51471 11.1765C1.84776 11.1765 1.20814 11.4414 0.73654 11.913C0.264941 12.3846 0 13.0242 0 13.6912V13.9706C0 13.9706 0 19 6.70588 19C13.4118 19 13.4118 13.9706 13.4118 13.9706V13.6912C13.4118 13.0242 13.1468 12.3846 12.6752 11.913C12.2036 11.4414 11.564 11.1765 10.8971 11.1765H2.51471ZM16.7647 17.3235C15.4559 17.3235 14.4534 17.1212 13.6856 16.8116C14.1325 16.0575 14.413 15.2165 14.5082 14.345C14.519 14.2391 14.5261 14.1329 14.5294 14.0265V13.6912C14.5308 12.7548 14.1695 11.8544 13.5213 11.1787L13.6353 11.1765H19.8941C20.5462 11.1765 21.1716 11.4355 21.6328 11.8966C22.0939 12.3578 22.3529 12.9832 22.3529 13.6353C22.3529 13.6353 22.3529 17.3235 16.7647 17.3235Z" fill="#767676"/>
</svg>
