<svg width="23" height="18" viewBox="0 0 23 18" fill="none" xmlns="http://www.w3.org/2000/svg">
<path d="M21.2405 5.54968H15.3779C14.854 5.54968 14.43 5.05798 14.43 4.45195V4.42864C14.43 3.82262 14.854 3.33092 15.3779 3.33092H21.2405C21.7689 3.33092 22.1995 3.83039 22.1995 4.44085C22.1995 5.05132 21.7689 5.55079 21.2405 5.55079V5.54968ZM21.2405 9.98942H15.3779C14.854 9.98942 14.43 9.49772 14.43 8.8917V8.86728C14.43 8.26125 14.854 7.76955 15.3779 7.76955H21.2405C21.7689 7.76955 22.1995 8.26902 22.1995 8.87949C22.1995 9.48995 21.7689 9.98942 21.2405 9.98942ZM21.265 14.4292H17.5722C17.0616 14.4292 16.6499 13.9375 16.6499 13.3314V13.307C16.6499 12.701 17.0627 12.2093 17.5722 12.2093H21.265C21.7789 12.2093 22.1995 12.7088 22.1995 13.3192C22.1995 13.9297 21.7789 14.4292 21.265 14.4292ZM7.77036 8.87949C6.59287 8.87949 5.4636 8.41173 4.63099 7.57912C3.79838 6.7465 3.33062 5.61724 3.33062 4.43974C3.33062 3.26225 3.79838 2.13298 4.63099 1.30037C5.4636 0.467757 6.59287 0 7.77036 0C8.94786 0 10.0771 0.467757 10.9097 1.30037C11.7424 2.13298 12.2101 3.26225 12.2101 4.43974C12.2101 5.61724 11.7424 6.7465 10.9097 7.57912C10.0771 8.41173 8.94786 8.87949 7.77036 8.87949ZM1.07745 17.84C0.430359 17.84 -0.0857616 17.2651 0.0119127 16.6268C0.300586 14.7768 1.24125 13.091 2.66404 11.8738C4.08683 10.6566 5.89796 9.98822 7.77036 9.98942C9.64258 9.98849 11.4534 10.657 12.876 11.8741C14.2986 13.0913 15.2391 14.777 15.5277 16.6268C15.6276 17.2651 15.1104 17.84 14.4644 17.84H1.07745Z" fill="#767676"/>
</svg>
