<svg width="20" height="20" viewBox="0 0 20 20" fill="none" xmlns="http://www.w3.org/2000/svg">
<path d="M0.5 5C0.5 5.59095 0.616396 6.17611 0.842542 6.72208C1.06869 7.26804 1.40016 7.76412 1.81802 8.18198C2.23588 8.59984 2.73196 8.93131 3.27792 9.15746C3.82389 9.3836 4.40905 9.5 5 9.5C5.59095 9.5 6.17611 9.3836 6.72208 9.15746C7.26804 8.93131 7.76412 8.59984 8.18198 8.18198C8.59984 7.76412 8.93131 7.26804 9.15746 6.72208C9.3836 6.17611 9.5 5.59095 9.5 5C9.5 3.80653 9.02589 2.66193 8.18198 1.81802C7.33807 0.974106 6.19347 0.5 5 0.5C3.80653 0.5 2.66193 0.974106 1.81802 1.81802C0.974106 2.66193 0.5 3.80653 0.5 5ZM0.5 15C0.5 15.5909 0.616396 16.1761 0.842542 16.7221C1.06869 17.268 1.40016 17.7641 1.81802 18.182C2.23588 18.5998 2.73196 18.9313 3.27792 19.1575C3.82389 19.3836 4.40905 19.5 5 19.5C5.59095 19.5 6.17611 19.3836 6.72208 19.1575C7.26804 18.9313 7.76412 18.5998 8.18198 18.182C8.59984 17.7641 8.93131 17.268 9.15746 16.7221C9.3836 16.1761 9.5 15.5909 9.5 15C9.5 13.8065 9.02589 12.6619 8.18198 11.818C7.33807 10.9741 6.19347 10.5 5 10.5C3.80653 10.5 2.66193 10.9741 1.81802 11.818C0.974106 12.6619 0.5 13.8065 0.5 15ZM10.5 15C10.5 16.1935 10.9741 17.3381 11.818 18.182C12.6619 19.0259 13.8065 19.5 15 19.5C16.1935 19.5 17.3381 19.0259 18.182 18.182C19.0259 17.3381 19.5 16.1935 19.5 15C19.5 13.8065 19.0259 12.6619 18.182 11.818C17.3381 10.9741 16.1935 10.5 15 10.5C13.8065 10.5 12.6619 10.9741 11.818 11.818C10.9741 12.6619 10.5 13.8065 10.5 15ZM15.525 9.155L15.803 8.519C16.2885 7.3919 17.1792 6.48798 18.299 5.986L19.153 5.606C19.616 5.401 19.616 4.728 19.153 4.523L18.347 4.164C17.1978 3.64951 16.2907 2.71238 15.814 1.547L15.529 0.859C15.4866 0.753373 15.4136 0.662854 15.3193 0.599098C15.225 0.535343 15.1138 0.501271 15 0.501271C14.8862 0.501271 14.775 0.535343 14.6807 0.599098C14.5864 0.662854 14.5134 0.753373 14.471 0.859L14.186 1.547C13.7093 2.71238 12.8022 3.64951 11.653 4.164L10.847 4.523C10.384 4.728 10.384 5.401 10.847 5.606L11.701 5.986C12.8208 6.48798 13.7115 7.3919 14.197 8.519L14.475 9.155C14.5186 9.25818 14.5917 9.34622 14.6851 9.40811C14.7784 9.47001 14.888 9.50302 15 9.50302C15.112 9.50302 15.2216 9.47001 15.3149 9.40811C15.4083 9.34622 15.4814 9.25818 15.525 9.155Z" fill="#767676"/>
</svg>
