<svg width="24" height="24" viewBox="0 0 24 24" fill="none" xmlns="http://www.w3.org/2000/svg">
<path d="M22.0829 13.1365C21.9989 13.137 21.9155 13.1208 21.8377 13.0891C21.7598 13.0573 21.689 13.0104 21.6293 12.9512L12.4996 3.81509L3.36989 12.9512C3.24767 13.0559 3.09045 13.1106 2.92966 13.1044C2.76887 13.0981 2.61634 13.0315 2.50256 12.9177C2.38877 12.8039 2.32212 12.6514 2.31591 12.4906C2.3097 12.3298 2.36439 12.1726 2.46906 12.0504L12.0524 2.46703C12.1721 2.34804 12.334 2.28125 12.5028 2.28125C12.6716 2.28125 12.8335 2.34804 12.9532 2.46703L22.5366 12.0504C22.6245 12.1401 22.684 12.2537 22.7077 12.377C22.7314 12.5003 22.7182 12.6279 22.6698 12.7438C22.6214 12.8597 22.54 12.9588 22.4356 13.0286C22.3312 13.0984 22.2085 13.136 22.0829 13.1365Z" fill="#767676"/>
<path d="M12.4997 5.97656L4.83301 13.6688V21.4441C4.83301 21.7829 4.96763 22.108 5.20726 22.3476C5.44689 22.5872 5.7719 22.7218 6.11079 22.7218H10.583V16.333H14.4163V22.7218H18.8886C19.2275 22.7218 19.5525 22.5872 19.7921 22.3476C20.0317 22.108 20.1663 21.7829 20.1663 21.4441V13.6241L12.4997 5.97656Z" fill="#767676"/>
</svg>
