<svg width="24" height="24" viewBox="0 0 24 24" fill="none" xmlns="http://www.w3.org/2000/svg">
<path d="M16.5186 16.5019C16.6936 16.3659 16.8526 16.2069 17.1696 15.8899L21.1266 11.9319C21.2226 11.8369 21.1786 11.6719 21.0516 11.6269C20.432 11.4121 19.8696 11.0584 19.4076 10.5929C18.9421 10.1309 18.5884 9.56858 18.3736 8.94889C18.3286 8.82189 18.1636 8.77789 18.0686 8.87389L14.1096 12.8309C13.7926 13.1479 13.6336 13.3069 13.4976 13.4819C13.3356 13.6892 13.1983 13.9112 13.0856 14.1479C12.9906 14.3479 12.9196 14.5619 12.7776 14.9879L12.5936 15.5379L12.3016 16.4129L12.0286 17.2329C11.9946 17.3357 11.9898 17.4459 12.0148 17.5512C12.0397 17.6566 12.0935 17.7529 12.1701 17.8295C12.2466 17.906 12.343 17.9598 12.4483 17.9848C12.5536 18.0097 12.6639 18.0049 12.7666 17.9709L13.5866 17.6979L14.4616 17.4059L15.0116 17.2219C15.4376 17.0799 15.6516 17.0099 15.8516 16.9139C16.0883 16.8006 16.3113 16.6632 16.5186 16.5019ZM22.3666 10.6929C22.7723 10.2871 23.0001 9.73681 23 9.16304C22.9999 8.58927 22.7719 8.03904 22.3661 7.63339C21.9604 7.22774 21.4101 6.99991 20.8363 7C20.2625 7.00009 19.7123 7.22811 19.3066 7.63389L19.1806 7.76189C19.1198 7.82138 19.0745 7.89488 19.0487 7.97595C19.0229 8.05703 19.0174 8.14319 19.0326 8.22689C19.0526 8.33389 19.0876 8.49189 19.1526 8.67889C19.2826 9.05389 19.5286 9.54589 19.9916 10.0089C20.4546 10.4719 20.9466 10.7179 21.3216 10.8479C21.5096 10.9129 21.6666 10.9479 21.7736 10.9679C21.8573 10.9823 21.9433 10.9763 22.0242 10.9506C22.1051 10.9248 22.1787 10.88 22.2386 10.8199L22.3666 10.6929Z" fill="#767676"/>
<path fill-rule="evenodd" clip-rule="evenodd" d="M4.172 3.172C3 4.343 3 6.229 3 10V14C3 17.771 3 19.657 4.172 20.828C5.344 21.999 7.229 22 11 22H13C16.771 22 18.657 22 19.828 20.828C20.981 19.676 21 17.832 21 14.18L18.182 16.998C17.912 17.268 17.691 17.489 17.442 17.684C17.1499 17.9128 16.8333 18.1083 16.498 18.267C16.1911 18.4051 15.8758 18.5236 15.554 18.622L13.242 19.393C12.875 19.5154 12.4811 19.5332 12.1046 19.4443C11.728 19.3554 11.3837 19.1635 11.1101 18.8899C10.8365 18.6163 10.6446 18.272 10.5557 17.8954C10.4668 17.5189 10.4846 17.125 10.607 16.758L10.881 15.938L11.356 14.512L11.377 14.446C11.498 14.084 11.597 13.788 11.733 13.502C11.893 13.166 12.0873 12.8517 12.316 12.559C12.511 12.309 12.732 12.089 13.002 11.819L17.008 7.812L18.12 6.7L18.247 6.573C18.5868 6.23215 18.9907 5.96188 19.4353 5.77773C19.88 5.59358 20.3567 5.49919 20.838 5.5C20.687 4.47 20.394 3.737 19.828 3.172C18.657 2 16.771 2 13 2H11C7.229 2 5.343 2 4.172 3.172ZM7.25 9C7.25 8.80109 7.32902 8.61032 7.46967 8.46967C7.61032 8.32902 7.80109 8.25 8 8.25H14.5C14.6989 8.25 14.8897 8.32902 15.0303 8.46967C15.171 8.61032 15.25 8.80109 15.25 9C15.25 9.19891 15.171 9.38968 15.0303 9.53033C14.8897 9.67098 14.6989 9.75 14.5 9.75H8C7.80109 9.75 7.61032 9.67098 7.46967 9.53033C7.32902 9.38968 7.25 9.19891 7.25 9ZM7.25 13C7.25 12.8011 7.32902 12.6103 7.46967 12.4697C7.61032 12.329 7.80109 12.25 8 12.25H10.5C10.6989 12.25 10.8897 12.329 11.0303 12.4697C11.171 12.6103 11.25 12.8011 11.25 13C11.25 13.1989 11.171 13.3897 11.0303 13.5303C10.8897 13.671 10.6989 13.75 10.5 13.75H8C7.80109 13.75 7.61032 13.671 7.46967 13.5303C7.32902 13.3897 7.25 13.1989 7.25 13ZM7.25 17C7.25 16.8011 7.32902 16.6103 7.46967 16.4697C7.61032 16.329 7.80109 16.25 8 16.25H9.5C9.69891 16.25 9.88968 16.329 10.0303 16.4697C10.171 16.6103 10.25 16.8011 10.25 17C10.25 17.1989 10.171 17.3897 10.0303 17.5303C9.88968 17.671 9.69891 17.75 9.5 17.75H8C7.80109 17.75 7.61032 17.671 7.46967 17.5303C7.32902 17.3897 7.25 17.1989 7.25 17Z" fill="#767676"/>
</svg>
