<svg width="30" height="30" viewBox="0 0 30 30" fill="none" xmlns="http://www.w3.org/2000/svg">
<path d="M13.5 0C9.91958 0 6.4858 1.42232 3.95406 3.95406C1.42232 6.4858 0 9.91958 0 13.5C0 17.0804 1.42232 20.5142 3.95406 23.0459C6.4858 25.5777 9.91958 27 13.5 27C17.0804 27 20.5142 25.5777 23.0459 23.0459C25.5777 20.5142 27 17.0804 27 13.5C27 9.91958 25.5777 6.4858 23.0459 3.95406C20.5142 1.42232 17.0804 0 13.5 0ZM18.69 17.925C18.69 20.13 17.49 22.875 12.6 24.975C13.05 18.72 8.82 19.44 7.8 17.475C7.8929 16.6621 8.18891 15.8856 8.66076 15.2172C9.13261 14.5487 9.76512 14.0098 10.5 13.65C8.17249 13.25 6.00183 12.2114 4.23 10.65C4.305 11.355 4.6485 12.006 5.19 12.465C4.01777 12.0212 3.00457 11.2378 2.28 10.215C2.99516 7.8546 4.42548 5.77444 6.37347 4.26173C8.32145 2.74901 10.691 1.87837 13.155 1.77C11.895 3.84 10.905 7.965 13.155 10.125C10.845 10.5 9.39 7.5 8.115 8.685C6.42 10.275 8.61 12.45 13.245 13.305C18.18 14.19 18.735 15.675 18.69 17.925ZM20.7 11.925C20.22 10.26 21.63 8.58 23.235 7.215C24.2373 8.65983 24.8754 10.3256 25.0948 12.0704C25.3142 13.8151 25.1084 15.587 24.495 17.235C23.34 14.4 21.24 13.755 20.7 11.88V11.925Z" fill="#79B833"/>
</svg>
