<svg width="30" height="30" viewBox="0 0 30 30" fill="none" xmlns="http://www.w3.org/2000/svg">
<path d="M7.5 10C7.5 6.465 7.5 4.69625 8.59875 3.59875C9.69625 2.5 11.465 2.5 15 2.5C18.535 2.5 20.3038 2.5 21.4013 3.59875C22.5 4.69625 22.5 6.465 22.5 10V20C22.5 23.535 22.5 25.3038 21.4013 26.4013C20.3038 27.5 18.535 27.5 15 27.5C11.465 27.5 9.69625 27.5 8.59875 26.4013C7.5 25.3038 7.5 23.535 7.5 20V10Z" fill="#79B833"/>
<path opacity="0.5" d="M7.67625 5.625C7.5 6.67875 7.5 8.0775 7.5 10V20C7.5 21.9225 7.5 23.3213 7.67625 24.375H7.5C5.75 24.375 4.875 24.375 4.20625 24.0337C3.61813 23.7344 3.13987 23.2566 2.84 22.6688C2.5 22 2.5 21.125 2.5 19.375V10.625C2.5 8.875 2.5 8 2.84 7.33125C3.13966 6.74294 3.61794 6.26466 4.20625 5.965C4.875 5.625 5.75 5.625 7.5 5.625H7.67625ZM22.3238 5.625C22.5 6.67875 22.5 8.0775 22.5 10V20C22.5 21.9225 22.5 23.3213 22.3238 24.375H22.5C24.25 24.375 25.125 24.375 25.7938 24.0337C26.3814 23.7342 26.8592 23.2564 27.1588 22.6688C27.5 22 27.5 21.125 27.5 19.375V10.625C27.5 8.875 27.5 8 27.1588 7.33125C26.8594 6.74313 26.3816 6.26487 25.7938 5.965C25.125 5.625 24.25 5.625 22.5 5.625H22.3238Z" fill="#79B833"/>
</svg>
