<svg width="30" height="30" viewBox="0 0 30 30" fill="none" xmlns="http://www.w3.org/2000/svg">
<path d="M5 6.25C4.64584 6.25 4.34917 6.13 4.11 5.89C3.87084 5.65 3.75084 5.35333 3.75 5C3.74917 4.64667 3.86917 4.35 4.11 4.11C4.35084 3.87 4.6475 3.75 5 3.75H25C25.3542 3.75 25.6513 3.87 25.8913 4.11C26.1313 4.35 26.2508 4.64667 26.25 5C26.2492 5.35333 26.1292 5.65042 25.89 5.89125C25.6508 6.13208 25.3542 6.25167 25 6.25H5ZM23.75 8.75C24.4375 8.75 25.0263 8.995 25.5163 9.485C26.0063 9.975 26.2508 10.5633 26.25 11.25V23.75C26.25 24.4375 26.0054 25.0263 25.5163 25.5163C25.0271 26.0063 24.4383 26.2508 23.75 26.25H6.25C5.5625 26.25 4.97417 26.0054 4.485 25.5163C3.99584 25.0271 3.75084 24.4383 3.75 23.75V11.25C3.75 10.5625 3.995 9.97417 4.485 9.485C4.975 8.99583 5.56334 8.75083 6.25 8.75H23.75Z" fill="#79B833"/>
</svg>
