<svg width="14" height="18" viewBox="0 0 14 18" fill="none" xmlns="http://www.w3.org/2000/svg">
<path fill-rule="evenodd" clip-rule="evenodd" d="M6.38565 16.9463C6.38565 16.9463 0.333984 11.8496 0.333984 6.83464C0.333984 5.06653 1.03636 3.37083 2.28661 2.12059C3.53685 0.870348 5.23254 0.167969 7.00065 0.167969C8.76876 0.167969 10.4645 0.870348 11.7147 2.12059C12.9649 3.37083 13.6673 5.06653 13.6673 6.83464C13.6673 11.8496 7.61565 16.9463 7.61565 16.9463C7.27898 17.2563 6.72482 17.253 6.38565 16.9463ZM7.00065 9.7513C7.38367 9.7513 7.76294 9.67586 8.11681 9.52928C8.47068 9.38271 8.79221 9.16787 9.06305 8.89703C9.33388 8.62619 9.54872 8.30466 9.6953 7.9508C9.84188 7.59693 9.91732 7.21766 9.91732 6.83464C9.91732 6.45161 9.84188 6.07234 9.6953 5.71848C9.54872 5.36461 9.33388 5.04308 9.06305 4.77224C8.79221 4.5014 8.47068 4.28656 8.11681 4.13999C7.76294 3.99341 7.38367 3.91797 7.00065 3.91797C6.2271 3.91797 5.48524 4.22526 4.93826 4.77224C4.39128 5.31922 4.08398 6.06109 4.08398 6.83464C4.08398 7.60818 4.39128 8.35005 4.93826 8.89703C5.48524 9.44401 6.2271 9.7513 7.00065 9.7513Z" fill="#717171"/>
</svg>
