<svg width="20" height="20" viewBox="0 0 20 20" fill="none" xmlns="http://www.w3.org/2000/svg">
<mask id="mask0_1449_486" style="mask-type:luminance" maskUnits="userSpaceOnUse" x="0" y="0" width="20" height="20">
<path d="M9.99936 18.3346C11.0939 18.336 12.1779 18.1211 13.1892 17.7022C14.2004 17.2833 15.1189 16.6687 15.8919 15.8938C16.6668 15.1208 17.2813 14.2023 17.7002 13.1911C18.1191 12.1799 18.334 11.0959 18.3327 10.0013C18.334 8.90676 18.1191 7.82274 17.7002 6.81151C17.2813 5.80029 16.6668 4.8818 15.8919 4.10881C15.1189 3.33388 14.2004 2.71932 13.1892 2.30044C12.1779 1.88156 11.0939 1.66663 9.99936 1.66798C8.90481 1.66663 7.82078 1.88156 6.80956 2.30044C5.79834 2.71932 4.87984 3.33388 4.10686 4.10881C3.33192 4.8818 2.71736 5.80029 2.29849 6.81151C1.87961 7.82274 1.66467 8.90676 1.66602 10.0013C1.66467 11.0959 1.87961 12.1799 2.29849 13.1911C2.71736 14.2023 3.33192 15.1208 4.10686 15.8938C4.87984 16.6687 5.79834 17.2833 6.80956 17.7022C7.82078 18.1211 8.90481 18.336 9.99936 18.3346Z" fill="white" stroke="white" stroke-width="2" stroke-linejoin="round"/>
<path d="M6.66602 10L9.16602 12.5L14.166 7.5" stroke="black" stroke-width="2" stroke-linecap="round" stroke-linejoin="round"/>
</mask>
<g mask="url(#mask0_1449_486)">
<path d="M0 0H20V20H0V0Z" fill="#272727"/>
</g>
</svg>
