<svg width="24" height="24" viewBox="0 0 24 24" fill="none" xmlns="http://www.w3.org/2000/svg">
<path d="M17 21.9984C15.6167 21.9984 14.4377 21.5108 13.463 20.5354C12.4883 19.5601 12.0007 18.3811 12 16.9984C11.9993 15.6158 12.487 14.4368 13.463 13.4614C14.439 12.4861 15.618 11.9984 17 11.9984C18.382 11.9984 19.5613 12.4861 20.538 13.4614C21.5147 14.4368 22.002 15.6158 22 16.9984C21.998 18.3811 21.5103 19.5604 20.537 20.5364C19.5637 21.5124 18.3847 21.9998 17 21.9984ZM4 11.0984V6.37344C4 5.95677 4.121 5.58177 4.363 5.24844C4.605 4.9151 4.91733 4.67344 5.3 4.52344L11.3 2.27344C11.5333 2.1901 11.7667 2.14844 12 2.14844C12.2333 2.14844 12.4667 2.1901 12.7 2.27344L18.7 4.52344C19.0833 4.67344 19.396 4.9151 19.638 5.24844C19.88 5.58177 20.0007 5.95677 20 6.37344V9.42344C20 9.70677 19.875 9.9361 19.625 10.1114C19.375 10.2868 19.1083 10.3324 18.825 10.2484C18.525 10.1651 18.225 10.1028 17.925 10.0614C17.625 10.0201 17.3167 9.9991 17 9.99844C15.0667 9.99844 13.4167 10.6818 12.05 12.0484C10.6833 13.4151 10 15.0651 10 16.9984C10 17.5318 10.0627 18.0528 10.188 18.5614C10.3133 19.0701 10.4923 19.5824 10.725 20.0984C10.875 20.4151 10.8293 20.6984 10.588 20.9484C10.3467 21.1984 10.0673 21.2484 9.75 21.0984C9.05 20.7318 8.40833 20.2818 7.825 19.7484C7.24167 19.2151 6.725 18.6318 6.275 17.9984C5.55833 17.0151 5 15.9358 4.6 14.7604C4.2 13.5851 4 12.3644 4 11.0984ZM17 16.9984C17.4167 16.9984 17.771 16.8528 18.063 16.5614C18.355 16.2701 18.5007 15.9158 18.5 15.4984C18.4993 15.0811 18.3537 14.7271 18.063 14.4364C17.7723 14.1458 17.418 13.9998 17 13.9984C16.582 13.9971 16.228 14.1431 15.938 14.4364C15.648 14.7298 15.502 15.0838 15.5 15.4984C15.498 15.9131 15.644 16.2674 15.938 16.5614C16.232 16.8554 16.586 17.0011 17 16.9984ZM17 19.9984C17.4167 19.9984 17.8083 19.9191 18.175 19.7604C18.5417 19.6018 18.8667 19.3728 19.15 19.0734C19.2333 18.9734 19.2667 18.8611 19.25 18.7364C19.2333 18.6118 19.1583 18.5158 19.025 18.4484C18.7083 18.2984 18.3793 18.1861 18.038 18.1114C17.6967 18.0368 17.3507 17.9991 17 17.9984C16.6493 17.9978 16.3037 18.0354 15.963 18.1114C15.6223 18.1874 15.293 18.2998 14.975 18.4484C14.8417 18.5151 14.7667 18.6111 14.75 18.7364C14.7333 18.8618 14.7667 18.9741 14.85 19.0734C15.1333 19.3734 15.4583 19.6028 15.825 19.7614C16.1917 19.9201 16.5833 19.9991 17 19.9984Z" fill="white"/>
</svg>
