<svg width="24" height="25" viewBox="0 0 24 25" fill="none" xmlns="http://www.w3.org/2000/svg">
<path d="M20 5.5C20.2652 5.5 20.5196 5.60536 20.7071 5.79289C20.8946 5.98043 21 6.23478 21 6.5C21 6.76522 20.8946 7.01957 20.7071 7.20711C20.5196 7.39464 20.2652 7.5 20 7.5H19L18.997 7.571L18.064 20.642C18.0281 21.1466 17.8023 21.6188 17.4321 21.9636C17.0619 22.3083 16.5749 22.5 16.069 22.5H7.93C7.42414 22.5 6.93707 22.3083 6.56688 21.9636C6.1967 21.6188 5.97092 21.1466 5.935 20.642L5.002 7.572L5 7.5H4C3.73478 7.5 3.48043 7.39464 3.29289 7.20711C3.10536 7.01957 3 6.76522 3 6.5C3 6.23478 3.10536 5.98043 3.29289 5.79289C3.48043 5.60536 3.73478 5.5 4 5.5H20ZM14 2.5C14.2652 2.5 14.5196 2.60536 14.7071 2.79289C14.8946 2.98043 15 3.23478 15 3.5C15 3.76522 14.8946 4.01957 14.7071 4.20711C14.5196 4.39464 14.2652 4.5 14 4.5H10C9.73478 4.5 9.48043 4.39464 9.29289 4.20711C9.10536 4.01957 9 3.76522 9 3.5C9 3.23478 9.10536 2.98043 9.29289 2.79289C9.48043 2.60536 9.73478 2.5 10 2.5H14Z" fill="#D70E0E"/>
</svg>
