<svg width="11" height="15" viewBox="0 0 11 15" fill="none" xmlns="http://www.w3.org/2000/svg">
<path d="M6.20309 0.03125L5.89059 0.96875H8.60934L8.29684 0.03125H6.20309ZM2.99996 0.21875C2.18746 0.21875 1.58746 0.50375 1.22184 0.945C0.853711 1.38594 0.718711 1.95312 0.718711 2.5V10.7188H1.28121V2.5C1.28121 2.04688 1.39684 1.61406 1.65309 1.305C1.91246 0.99625 2.31246 0.78125 2.99996 0.78125H5.35934L5.54684 0.21875H2.99996ZM5.47809 1.53125L4.11246 2.85938L5.42184 2.2625L4.34371 4.97813L6.29996 3.15625L6.26559 6.02187L7.25934 2.85938L9.46246 6.53438L8.48434 2.44375L10.4062 3.57188L8.92184 1.53125H5.47809ZM0.267148 11.2812L0.108398 14.4062H1.89059L1.73121 11.2812H0.267148Z" fill="white"/>
</svg>
